<?xml version="1.0" encoding="utf-8"?>
<!-- Generator: Adobe Illustrator 27.2.0, SVG Export Plug-In . SVG Version: 6.00 Build 0)  -->
<svg version="1.1" id="Calque_1" xmlns="http://www.w3.org/2000/svg" xmlns:xlink="http://www.w3.org/1999/xlink" x="0px" y="0px"
	 viewBox="0 0 460.8 408.72" style="enable-background:new 0 0 460.8 408.72;" xml:space="preserve">
<style type="text/css">
.contour {
    fill-rule:evenodd;
    clip-rule:evenodd;
	fill:#0;
}

.ventre {
    fill-rule:evenodd;
    clip-rule:evenodd;
    fill:#FFEE76;
}

.carapace {
    fill-rule:evenodd;
    clip-rule:evenodd;
    fill:#BF6716;
}

.peau {
    fill-rule:evenodd;
    clip-rule:evenodd;
    fill:#B5DEE0;
}

.rebord_carapace {
    fill-rule:evenodd;
    clip-rule:evenodd;
    fill:#E9F5FE;
}

.ombre {
    opacity:0.3;
    fill-rule:evenodd;
    clip-rule:evenodd;
}

.iris {
    fill-rule:evenodd;
    clip-rule:evenodd;
    fill:#A02D16;
}

.reflet {
    fill-rule:evenodd;
    clip-rule:evenodd;
    fill:#FFFFFF;
}

.langue {
    fill-rule:evenodd;
    clip-rule:evenodd;
    fill:#F39CAA;
}

.bouche {
    fill-rule:evenodd;
    clip-rule:evenodd;
    fill:#48343A;
}
</style>
<path class="contour" d="M51.45,34.49c1.71-1.61,6.24,0.12,7.23,0.64c1,0.52,2.11,1.27,3.01,2.36c0.66-3.27,4.23-18.38,7.13-19.23
	c6.02-1.94,10.04,9.78,11.89,12.1c0.28-3.51,3.97-12.6,7.34-13.07c1.94-0.22,6.9,6.07,9.88,12.36c2.97,6.27,7.63,14.22,13.39,19.12
	c1.85,0.43,16.86-41.29,87.33-43.58c31.15-1.73,59.53,17.93,73.33,33.91c13.8,15.98,23.33,34.71,20.09,73.2
	c2.93,0.71,6.55,6.54,6.95,10.03c1.5-0.6,31.73-12.12,43.37-16.24c7.06-2.5,16.75-6.13,22.29-8.83c5.54-2.69,8.02-1.47,9.17-0.9
	c5.54,2.77-1.45,15.87-3.12,20.7c3.09,0.63,15.86,1.67,18.15,5.55c1.9,3.17-7.18,12.36-9.56,16.08
	c-2.38,3.72-26.33,32.75-39.31,43.05c-12.98,10.3-19.23,13.05-22.16,15.18c0.95,4.83,0.23,11.69-1.43,19.77
	c-1.66,8.08-5.18,17.58-7.55,22.49c-2.38,4.91-7.93,14.82-9.99,17.83c7.67-2.43,20.14-8.49,30.83-17.05
	c10.69-8.55,38.89-35.15,49.34-42.04c10.45-6.89,17.79-9.67,32.44-10.78s22.72,4.18,27.71,6.95c4.99,2.77,10.42,9.98,12.24,17.19
	c1.82,7.21,4.45,22.76-4.26,42.01c-8.71,19.24-19.5,28.39-31.62,33.77c-12.11,5.39-19.08,4.15-22.16,4.23
	c-9.82,5.7-22.46,11.73-42.57,14.11c-20.11,2.38-46.89-6.76-50.05-7.56c5.15,11.56,13.42,37.44,15,45.91
	c4.04,8.08,16.41,33.21,17.04,34.95c0.63,1.74,1.18,4.18-1.43,5.44c-2.61,1.27-4.5,0.38-7.66-0.57c-3.17-0.95-7.74-4.41-9.17-5.12
	c0.16,2.79,0.02,8.43-0.21,13.57c-0.24,4.2-2.09,10.09-4.22,10.89c-1.58,0.55-21.1-11.55-25.46-14c-1.03,5.31-2.84,9.19-5.3,11.57
	c-2.45,2.38-3.4,1.61-4.12,1.29c-6.25-5.78-15.77-25.4-18.22-29.83c-2.08-2.49-12.96-16.33-19.37-25.35
	c-6.41-9.03-19.45-30.57-22.56-37.28c-3.56,0.08-28.51,0.33-53.92-8.7c-27.16-9.9-37.98-20.89-39.56-21.92
	c-4.04,1.03-18.71,2.92-20.37,2.76c1.74,2.06,3.12,5.77,2.72,7.59c-0.4,1.82-4.84,6.81-7.05,7.91c-3.56,1.66-30.34,7.4-38.1,8.27
	c-7.76,0.87-20.28,2.43-26.85,1.33c-6.57-1.11-6.5-1.75-6.74-2.78c-0.24-1.03,2.2-4.03,3.87-5.71c-4.43,0.79-9.95-0.49-12.64-1.36
	c-2.69-0.87-8.05-3.2-8.52-4.23c-0.48-1.03,4.2-6.26,8.16-9.67c-4.2-0.48-10.61-4.25-11.24-5.12c-0.63-0.87,0.33-3.43,2.54-5.8
	c2.22-2.38,10.18-8.57,29.57-14.04c-3.01-4.28-4.41-14.59-4.33-20.77c0.08-6.18,1.91-11.55,7.38-18.84
	c5.47-7.29,15.23-13.92,24.89-18.99s18.87-7.44,19.9-7.83c0.32-6.65,4.29-22.05,6.27-25.93c-8-11.72-17.53-35.5-19.51-40.97
	c-1.98-5.46-10.82-34.6-12.96-45.05c-0.94-4.58-4.11-17.06-4.98-22.92C52.73,50.69,50.49,35.39,51.45,34.49z"/>
<path class="ventre" d="M236.52,240.4c2.36-2.36,35.34-34.49,38.56-37.17c2.26,1.93,6.45,5.69,11.06,5.8
	c-9.88,22.34-9.56,41.58-8.06,54.47c-2.58-0.64-10.53-2.15-25.56,6.45C249.52,264.26,238.78,244.92,236.52,240.4z"/>
<path class="ventre" d="M96.53,244.27c4.04-7.16,14.41-25.6,16.04-28.22c17.15,7.02,38.6,12.39,52.35,15.72
	c-0.57,3.47-3.62,27.43-4.12,30.91c-4.61,2.06-28.97,13.18-36.13,16.37C111.99,268.98,101.91,256.6,96.53,244.27z"/>
<path class="carapace" d="M295.81,246.39c2.22-2.01,14.16-12.97,19.3-37.07c0.42,0.07,0.69,0.15,1.11,0.21
	c-1.8,11.46-8.33,32.92-21.45,50.06C294.98,258,295.61,249.09,295.81,246.39z"/>
<path class="peau" d="M91.84,163.73c-10.38-17.21-19.32-39.18-24.02-56.58c-6.56-24.27-13.44-47.7-15.11-71.77
	c4.76,0.07,8.27,2.28,8.23,4.44c-0.35,0.99-0.75,1.87-0.25,2.22c0.5,0.35,1.22,0.62,2.01-1.9c0.78-2.52,4.15-19.56,6.8-20.52
	c2.18-0.64,4.91,2.65,6.52,5.59c1.8,3.29,4.08,9.08,5.51,8.52c1.03-0.42,0.38-1.53,1.25-5.41c0.88-3.87,3.09-7.79,4.98-9.38
	c1.91-1.03,6.88,8.01,10.67,15.26c3.79,7.24,6.58,10.58,11.89,16.12C101.28,68,95.94,82.62,95.49,97.09
	c-0.45,14.46,2.46,26.73,8.74,39.46C102.86,139.19,95.89,151.83,91.84,163.73z"/>
<path class="peau" d="M84.64,193.1c-6.58,1.78-40.95,13.41-49.41,36.92c-2.46,9.25,0.09,20.02,2.76,26.39
	c2.66,6.37,9.8,17.44,12.93,20.74c1.31,1.37,7.36,3.75,7.66,3.9c0.3,0.15,0.91,0.35,0.63,1.17s-0.99,0.52-2.6-0.21
	c-1.61-0.73-3.47-1.59-6.05-2.97c-1.42-0.9-6.76-7.65-13.07-19.8c-6.16,1.67-15.69,5.2-21.38,8.42c-5.69,3.21-9.89,6.94-9.77,9.1
	c0.06,0.24,3.26,1.96,4.4,2.58s3.64,1.61,6.27,1.61s5.86-2.09,6.05-2.22s0.81-0.32,1.18,0.43c0.37,0.75-0.94,1.38-1.9,1.83
	c-0.95,0.45-3,1.36-3.54,1.4c-0.6,0.49-9.34,8.92-9.09,9.67c0.24,0.75,7.4,2.88,9.77,3.65c2.38,0.77,7.52,1.46,11.31,0.11
	c0.99-1.18,1.71-2.24,1.93-2.54c0.22-0.3,0.67-0.7,1.22-0.25c0.54,0.45,0.12,1.15-0.07,1.43c-2.55,3.58-6.84,7.95-6.8,9.13
	c1.1,1.25,7.08,1.99,18.19,1.47c11.1-0.52,34.19-4.98,38.24-6.27s9.94-2.41,12.17-3.19c2.24-0.77,6.42-5.1,6.59-7.34
	c0.17-2.24-2.94-6.45-2.94-6.45s-20.21,1.86-20.73,1.86c-0.52,0-0.85-0.27-0.9-0.79c-0.04-0.52,0.2-0.74,0.93-0.82
	c0.73-0.09,30.98-2.58,41.39-4.69c-4.6-4.13-19.29-16.97-26.85-36.53S84.43,211.54,84.64,193.1z"/>
<path class="peau" d="M216.51,308.48c0.43-2.9,4.99-11.01,13.32-19.12c8.32-8.11,19.87-17.46,29.65-21.06
	c9.77-3.6,15.7-4.51,19.08-3.01c2.9,2.63,7.09,8.33,11.6,15.04c4.51,6.71,15.81,34.28,19.94,48.81c4.14,14.53,4.4,15.92,5.05,17.33
	c3.23,6.51,13.46,26.77,14.75,29.4c1.29,2.63,2.33,5.11,1.47,6.2c-0.86,1.08-3.22,1.27-5.48,0.57c-2.26-0.7-8.65-4.44-9.56-4.98
	c-0.91-0.54-1.99-1.84-2.9-1.47c-0.91,0.38-0.48,2.33-0.43,4.69c0.05,2.36-0.27,8.25-0.43,11.64c-0.16,3.38-1.74,8.61-2.86,8.67
	c-1.13,0.05-19.6-10.89-21.59-12.18c-1.99-1.29-3.65-2.36-4.3-2.15c-0.64,0.21-1.86,6.75-3.04,8.95c-1.18,2.2-3.08,4.69-4.26,4.58
	c-1.18-0.11-6.78-8.52-9.85-14c-3.06-5.48-5.78-11.69-8.31-15.51c-2.52-3.81-10.31-11.62-21.38-28.54
	C225.92,325.44,217.64,311.65,216.51,308.48z"/>
<path class="peau" d="M288.33,274.35c2.92-0.8,5.99-7.95,5.91-9.24c0.77-1.67,1.92-4.35,2.43-5.37c8.67-3.55,19.84-7.55,32.04-17.01
	c12.21-9.46,27.37-23.69,39.42-34.45c12.05-10.76,27.07-19.33,43.5-19.62c16.43-0.29,27.35,4.48,34.73,15.08
	c3.81,5.07,5.26,15.57,5.3,22.49c0.04,6.92-1.93,15.74-3.51,19.84c-6.07,18.4-16.2,28.54-24.2,34.13
	c-7.76,5.59-18.01,9.99-30.68,9.49c-16.14-4.92-19.17-18.98-19.58-25.82c-0.42-6.84,1.36-16.96,9.31-25.43
	c7.95-8.46,13.17-10.41,21.59-9.2c8.42,1.21,13.47,8.81,12.42,15.36c-1.04,6.55-2.25,10.29-5.3,14.54c-3.71,4.96-5.46,5.41-4.8,6.41
	c0.88,1.04,1.64-0.12,3.69-2.33c2.04-2.21,6.06-8.37,7.34-13.82c1.15-4.74,1.14-10.8-1.04-14c-2.18-3.21-6.31-7.55-13.86-8.13
	c-7.55-0.58-14.52,1.96-21.23,9.85c-6.71,7.88-11.41,18.13-9.49,30.19c1.88,11.35,8.95,20.34,18.69,23.49
	c-4.49,2.05-19.87,10.35-33.33,12.03c-6.91,0.86-17.4,2.28-33.08-0.68c-15.68-2.96-23.66-5.98-24.92-6.59
	C298.64,293.34,293.84,281.95,288.33,274.35z"/>
<path class="rebord_carapace" d="M279.77,264.18c-0.21-1.23-1.44-8.6-0.43-21.63c1.01-14.87,6.84-30.32,8.56-33.48
	c2.46-0.32,12.17-3.69,14.25-4.55c-1.83,5.27-5.92,19.56-7.05,31.87c-1.28,11.8-2.11,25.63-2.22,27.18
	c-0.69,3.84-2.8,8.22-5.59,9.45C285.42,270.63,281.7,265.68,279.77,264.18z"/>
<path class="peau" d="M287.87,128.56c1.51-0.81,49.42-19.14,52.78-20.34c3.35-1.2,4.45-0.84,9.81-3.22
	c5.36-2.39,13.01-5.44,15.93-6.52s5.78-1.85,6.95-0.57c1.76,2.3,1.21,4.6,0.29,7.41c-0.92,2.81-3.16,8.19-3.87,9.81
	c-0.7,1.62-1.26,2.47-0.93,3.12c0.27,0.43,2.8,0.63,3.94,0.79c1.14,0.16,13.42,1.31,14.39,4.12c0.49,1.79-0.57,3.12-1.54,4.37
	c-0.97,1.24-3.95,4.93-6.66,8.67c-2.7,3.73-12.93,17.02-17.04,21.34c-4.11,4.33-18.54,20.09-29.68,28.04
	c-8.71,6.49-29.3,18.7-44.93,21.92c-4.27-0.62-13.81-3.45-17.97-17.4c-4.16-13.96-1.34-28.76,1.25-34.06
	c2.54-2.43,7.68-9.35,10.31-13.29C283.51,138.81,287.22,130.35,287.87,128.56z"/>
<path class="peau" d="M99.68,82.55c7.02-32.71,28.5-61.55,65.09-70.66c36.59-9.1,54.06-5.35,76.01,5.41
	c21.95,10.75,47.63,34.28,50.16,74.92c2.98,32.28-12.36,65.76-53.6,84.52c-41.24,18.76-98.4-3.73-116.61-21.95
	C109.09,143.88,91.02,120.03,99.68,82.55z"/>
<path class="ombre" d="M283.21,219.85c0.22,1.4,1.67,7.15,2.04,12.14c0.37,4.99,0.74,14.1,1.04,16.01c0.29,1.91,1.04,7.94,2.58,8.38
	c1.54,0.44,4.16-1.97,5.33-3.58c0.29,2.35-0.56,12.4-1,13.64c-0.44,1.25-2.79,6.68-5.66,7.27c-1.62-1.1-6.03-7.19-8.16-8.81
	c-0.51-1.76-1.74-16.52-0.79-24.6C279.55,232.22,281.3,224.55,283.21,219.85z"/>
<path class="ombre" d="M215.58,308.45c1.05-4.53,9.18-17.1,14.04-19.95c0.63,1.9,3.39,17.42,9.09,30.51
	c5.7,13.09,16.34,33.71,19.41,39.72c3.06,6.01,9.47,17.73,11.39,21.95c1.92,4.22,7.4,17.1,8.66,19.95
	c-0.74,0.53-0.95,0.64-2.33,0.64c-3.17-1.69-15.41-24.82-18.47-30.83c-3.59-4.96-18.15-22.92-22.06-29.15
	C231.4,335.06,217.38,312.87,215.58,308.45z"/>
<path class="ombre" d="M283.57,387.77c-0.21-1.27,2.53-5.31,3.9-7.74c5.91,4.54,15.09,12.38,24.17,19.66
	c-0.42,1.06-0.94,2.34-1.9,2.22s-15.95-8.58-21.12-11.75C283.44,387,284.73,387.35,283.57,387.77z"/>
<path class="ombre" d="M313.64,377.1l0.32-5.41l18.05,8.24c0,0,0.6,3-1.07,3.62c-1.67,0.62-10.36-2.47-12.25-3.72
	C316.81,378.57,313.64,377.1,313.64,377.1z"/>
<path class="contour" d="M231.3,134.22c-0.53-0.59-1.31-5.66-1.5-7.05c-0.64-4.49-1.65-9.28-0.04-20.27c2.36-16.09,9.18-33.6,20.41-32.3
	c2.29-0.32,6.76-0.18,11.42,4.15c4.66,4.34,7.22,15.46,6.09,26.72c-1.13,11.31-4.42,18.71-7.09,23.24c-1.5,2.55-2.85,4.79-3.44,5.12
	c-0.92,0.2-3.38,0.12-5.05,0.14c-5.66,0.09-11.67,0.22-16.18,0.29C234.04,134.28,232.21,134.49,231.3,134.22z"/>
<path class="contour" d="M143.25,121.4c-0.53,0.21-2.52-0.61-5.97-1.78c-7.22-2.44-18.38-6.21-18.38-6.21s-5.17-7.47-2.83-24.71
	c2.34-17.24,8.11-23.01,11.03-26.18c3.15-3.24,6.61-4.6,10.13-4.83c2.38-0.16,4.95,0.66,5.66,1.04c0.68,0.14,3.58,0.73,5.8,3.37
	c2.22,2.63,6.67,11.21,4.91,28.08c-1.16,11.05-5.23,21.14-7.89,26.77C144.3,119.92,143.78,121.19,143.25,121.4z"/>
<path class="contour" d="M243,63.75c0.05,0.09,0.4,0.82-0.54,1.29c-0.94,0.47-2.86,1.25-5.91,5.01c-3.04,3.77-4.14,7.55-4.37,8.09
	c-0.22,0.54-0.84,0.52-1.15,0.36c-0.3-0.16-0.5-0.51-0.32-1.11c0.18-0.6,1.78-5.36,4.76-8.7c2.98-3.34,5.05-4.65,6.09-5.09
	C242.61,63.16,242.96,63.65,243,63.75z"/>
<path class="contour" d="M155.43,66.32c-0.18-0.04-0.79-0.09-0.75-1.11c0.04-1.02,0.24-4.26-0.86-8.81c-1.1-4.55-2.83-6.74-3.11-7.16
	c-0.29-0.42-0.14-1.06,0.25-1.25c0.39-0.19,0.86-0.1,1.09,0.22c0.23,0.32,2.19,2.83,3.38,7.59s1.03,8.71,0.93,9.63
	C156.26,66.35,155.6,66.36,155.43,66.32z"/>
<path class="contour" d="M110.63,124.55c-0.22-0.55-0.79-1.01-1.4-0.72c-0.6,0.29-0.39,1.03-0.11,1.47c0.28,0.44,2.24,2.52,4.44,3.69
	c0.49,1.86,5.83,14.69,17.37,25.96c9.9,9.69,32.14,21.23,49.59,23.03c20.15,1.84,33.37,1.51,53.13-7.02
	c19.76-8.53,30.05-25.16,30.9-26.21c0.85-1.06,1-1.65,0.73-1.97c-0.27-0.32-0.55-0.53-1.48,0c-0.93,0.53-6.33,3.1-17.69,4.05
	c-11.35,0.95-22.7-0.5-38.7,0.29c-16,0.78-22.11,3.14-23.52,3.55c-2.64-1.56-13.35-6.99-33.73-12.46
	c-20.38-5.48-23.82-4.9-31.11-8.25C112.65,127.01,110.85,125.1,110.63,124.55z"/>
<path class="contour" d="M171.04,133.76c0.37-0.45,0.93-0.26,1.22,0c0.29,0.26,0.82,0.88,1.32,1.54c0.5,0.66,1.06,2.04,1.11,2.44
	c0.05,0.4-0.15,0.9-0.57,1c-0.42,0.11-0.94-0.21-1.07-0.68c-0.13-0.48-0.33-1.19-0.75-1.75c-0.42-0.57-0.92-1.1-1.18-1.36
	C170.84,134.67,170.67,134.21,171.04,133.76z"/>
<path class="contour" d="M201.54,137.84c-0.1-0.7-0.82-0.78-1.43-0.61c-0.61,0.17-1.26,0.65-1.86,1.29c-0.6,0.64-1.31,1.73-1.43,2.11
	c-0.12,0.38,0.06,0.77,0.47,1c0.4,0.23,0.93-0.06,1.15-0.5c0.21-0.44,0.71-1.26,1.07-1.61c0.36-0.36,0.61-0.65,1.06-0.72
	S201.64,138.54,201.54,137.84z"/>
<path class="ombre" d="M9.27,292.76c0,0,7.79,3.62,14.61,4.73c7.22,0,8.65-2.13,9.45-2.94c0.8-0.8,3-2.11,2.4-4.01
	c-0.6-1.9-5.32,1.62-12.64,1.72C15.78,292.36,9.27,292.76,9.27,292.76z"/>
<path class="ombre" d="M5.76,276.04c5.61-0.2,17.54,0.29,19.05,2.29c-3.91,2.1-6.41,3.19-8.41,3.29
	C14.39,281.72,4.96,277.94,5.76,276.04z"/>
<path class="ombre" d="M101.65,255.77c-8.42,7.32-19.12,9.73-31.15,12.03c-12.03,2.31-25.75-2.4-32.76-9.31
	c-3.11,0.7-4.33,1.2-5.23,1.9c4.21,5.61,6.91,12.34,8.41,16.55c1.5,4.21,5.51,17.82,4.91,21.13c-3.91,3.11-15.84,4.72-19.55,5.62
	c7.22,5.01,30.59,0.69,37.81-0.11c7.22-0.8,29.25-5.79,32.15-7.2c2.91-1.4,6.23-5.74,6.73-7.84c0.5-2.1-2.42-6.11-2.72-7.41
	c8.12-1.4,21.26-2.58,21.16-3.58C113.29,270.93,105.36,260.78,101.65,255.77z"/>
<path class="ombre" d="M199.25,184.39c0,0,19.8-1.79,42.21-13.9c22.41-12.1,30.58-23.29,37.74-39.07c7.15-15.78,8.15-36.93,6.05-52.93
	c-2.1-16-11.67-35.6-11.67-35.6s12.28,16.25,15.54,31.19c3.26,14.94,2.68,31.78,2.36,34.2c-0.32,2.42,0.02,24.39-24.53,49.92
	C239.36,186.17,199.25,184.39,199.25,184.39z"/>
<path class="ombre" d="M71.21,118.5c8.06,9.76,18.61,20.46,27.89,30.08c-1.22,2.24-4.95,10.61-6.98,16.37
	C85.87,156.4,74.49,129.89,71.21,118.5z"/>
<path class="ombre" d="M350.09,135.33c-0.2-1.08,0.46-2.76,1.22-4.48s3.97-7.22,6.27-9.17c2.3-1.95,2.95-2.07,3.69-1.9
	c0.74,0.18,2.12,2.25,2.58,5.19c0.45,2.95,0.56,6.39,0.36,7.66c-0.2,1.27-0.87,3.26-1.47,3.76c-0.6,0.5-3.29,1.51-6.48,1.25
	C353.06,137.4,350.29,136.42,350.09,135.33z"/>
<path class="ombre" d="M269.8,194.12c3.03-0.23,14.52-0.98,36.08-6.46c21.55-5.49,39.43-17.81,46.4-22.56
	c6.97-4.75,11.56-9.13,13.96-11.53c-2.97,3.95-8.49,10.06-18.73,20.13c-10.23,10.07-24.93,20.91-38.92,26.89
	c-13.99,5.99-16.52,6.96-20.98,7.59C276.7,207.37,270.2,195.43,269.8,194.12z"/>
<path class="ombre" d="M287.19,274.25c1.48-0.84,3.25-1.67,5.37-5.48c1.49-5.71,2.46-8.57,3.72-9.42c1.27-0.84,5.69-2.73,7.81-3.47
	c0.21,0.63,1.98,8.04,9.38,14.9c7.4,6.86,15.95,14.99,37.59,18.05c21.64,3.06,30.81-2.23,31.97-2.86c1.58,0.95,6.44,3.91,8.56,4.44
	c0.96,0.53-14.28,8.23-23.45,10.67c-12.76,3.18-21.61,6.15-48.01,1.18c-17.32-4.12-19.54-5.39-20.91-6.23
	C296.68,289.69,289.3,276.89,287.19,274.25z"/>
<path class="ombre" d="M384.11,236.04c-2.65,2.42-9.61,10.35-10.67,20.27c-1.06,9.92,0.67,20.27,6.98,26.39
	c6.32,6.12,12,7.7,14.75,8.02c2.76,0.32,13.71-1.38,19.84-4.33c6.12-2.96,15.41-9,22.38-17.76c6.97-8.76,12.17-23.64,12.17-23.64
	s-0.63-0.41-1.79-1.15c-2.01,2.75-11.1,17.32-19.12,24.71c-8.02,7.39-19.75,12.77-31.47,10.03c-11.72-2.75-14.17-10.07-16.17-16.51
	C379,255.63,381.9,240.9,384.11,236.04z"/>
<path class="iris" d="M234.45,118.75c0,0,2.46,3.26,6.16,4.05c3.7,0.79,7.95-2.86,8.7-3.44c-0.34,3.3-2.05,11.09-3.26,13.07
	c-1.22,0.22-6.31,0.19-8.16,0.14c-0.5-0.72-2.22-3.17-3.19-6.88C233.73,122,234.45,118.75,234.45,118.75z"/>
<path class="iris" d="M128.68,103.39c0,0,3.64,3.76,7.38,3.9c3.74,0.15,8.09-3.69,8.09-3.69s0.18,3.36-1.79,8.31
	c-1.98,4.95-3.83,6.41-3.83,6.41l-7.41-2.26c0,0-1.07-2.08-1.79-5.98C128.6,106.19,128.68,103.39,128.68,103.39z"/>
<path class="reflet" d="M256.43,132.22c-2.01,0.14-4.63,0.21-6.62,0.14c3.31-5.38,8.63-16.49,9.81-26.14c1.18-9.66,0.72-15.79,0-19.73
	c-0.72-3.94-2.4-7.87-4.44-9.71c11.89,2.96,11.95,26.38,9.85,36.1C262.92,122.6,258.08,130.15,256.43,132.22z"/>
<path class="reflet" d="M238.99,86.59c2.79-5.8,9.01-10.27,12.28-8.7c3.27,1.57,3.34,7.92-0.72,14.32c-4.06,6.41-9.74,8.32-12.53,6.66
	C235.23,97.22,236.2,92.4,238.99,86.59z"/>
<path class="reflet" d="M125.1,113.7c-1.24-0.32-2.59-0.85-4.94-1.58c-0.7-1.05-3.15-6.25-3.15-13.18s1.31-15.92,3.94-23.49
	c2.63-7.57,9.72-16.89,17.08-15.97c-9.24,4.08-15.95,21.85-15.9,34.63C122.18,106.9,124.67,112.47,125.1,113.7z"/>
<path class="reflet" d="M130.72,69.44c2.74-5,7.06-8.87,11.71-7.27c4.65,1.6,4.59,7.34,0.54,13.75c-4.06,6.41-10.66,8.83-13.32,6.63
	C126.98,80.34,127.98,74.44,130.72,69.44z"/>
<path class="langue" d="M134.37,136.01c-1.89,1.67-6.11,11.15-6.27,13.5c0.68,0.76,4.02,5.8,17.11,13.82
	c5.11,3.13,17.47,10.98,37.52,13.18c20.06,2.2,33.25-0.92,42.03-3.87c8.78-2.95,20.33-10.11,21.77-11.5
	c0.08-1.82-1.42-9.36-3.62-12.39c-2.72,0.23-24.39-0.46-36.27,0.14c-11.88,0.61-21.62,3.16-22.99,3.69
	c-1.29-0.98-8.33-5.13-23.17-9.67C145.68,138.38,138.31,136.62,134.37,136.01z"/>
<path class="bouche" d="M115.83,130.28c0.91,3.1,6.91,13.22,10.92,17.69c0.53-2.57,3.49-9.6,5.91-12.25
	C128.49,135.05,118.78,132.25,115.83,130.28z"/>
<path class="bouche" d="M244.86,148.58c4.62-0.23,12.04-1.25,17.26-3.22c-3.1,4.69-11.73,13.17-14,14.61
	C248.05,157.09,246.68,152.22,244.86,148.58z"/>
<path class="contour" d="M346.98,114.13c0.02,0.87,0.81,0.87,1.22,0.82c0.41-0.04,2.39-0.51,3.15-0.64c0.76-0.13,4.44-0.57,6.59-0.5
	c2.14,0.07,4.46,0.86,4.98,1.9c0.52,1.04-0.67,3.29-1.15,4.44s-2.17,4.19-2.97,5.41c-0.8,1.21-1.89,2.3-2.26,2.65
	c-0.37,0.35-1.04,0.92-0.32,1.61c0.71,0.69,1.68-0.52,2.61-1.54c0.93-1.02,2.28-3.42,3.04-4.76c0.77-1.35,2.05-4.03,2.61-5.59
	c0.56-1.56,0.22-2.98-0.5-3.69c-0.72-0.71-3.03-2.19-6.62-2.08c-3.6,0.11-5.29,0.36-7.41,0.75
	C347.83,113.3,346.96,113.27,346.98,114.13z"/>
<path class="ombre" d="M295.28,250.5c1.39-1.39,11.32-11.61,12.78-13c-0.9,5.48-12.22,23.12-13.61,23.89
	C293.9,260.14,294.58,252.45,295.28,250.5z"/>
<path class="carapace" d="M303.34,205.43c2-0.94,8.24-3.93,10.3-5.12c-4.37,28.03-14.24,37.59-17.54,41.09
	c-0.06-0.87,1.19-12.65,2.32-17.77C299.54,218.5,302.1,208.55,303.34,205.43z"/>
<path class="rebord_carapace" d="M288.51,126.49c1.01-1.93,2.97-10.63,3.29-12.61c2.76,1.75,4.64,4.18,5.69,9.1
	C295.06,123.94,289.25,126.26,288.51,126.49z"/>
<path class="ventre" d="M126.21,280.19c1.81-1.02,29.43-13.39,35.27-16.04c8.27,6.33,32.92,26.08,53.89,42.4
	c-0.18,0.35-0.33,0.8-0.47,1.11C166.02,307.7,139.61,289.84,126.21,280.19z"/>
<path class="ventre" d="M162.55,262.75c0.32-2.79,3.01-25.14,3.97-30.62c8.91,1.83,41.64,9.02,68.82,9.67
	c1.93,3.22,13.43,24.6,15.57,28.9c-16.97,9.88-28.68,22.78-34.91,34.16C209.46,299.71,168.35,267.58,162.55,262.75z"/>
<path class="ventre" d="M90.01,173.87l21.27,41.04l-15.61,27.43c0,0-7.64-15.08-9.13-35.63C85.05,186.15,90.01,173.87,90.01,173.87z"/>
<path class="ventre" d="M90.66,171.47c0.43-1.13,2.55-7.51,3.54-9.78c2.27,0.92,18.21,7.51,37.27,13.39
	c19.06,5.88,33.86,9.36,39.38,10.49c-0.35,3.12-5.3,40.62-5.73,44.59c-23.03-5.24-41.82-11.65-52.24-15.9
	C110.34,209.8,93.56,176.64,90.66,171.47z"/>
<path class="ventre" d="M172.68,185.9c69.06,11.76,94.48,6.56,95.45,6.34c1.57,4.49,3.9,7.57,5.69,9.81
	c-2.55,2.47-37.51,36.05-39.53,38c-21.05-0.45-56.51-6.79-67.6-9.56C167.15,227.56,172.23,187.92,172.68,185.9z"/>
<path class="ventre" d="M94.88,160.15c1.85-4.72,5.62-13.98,10.17-21.45c3.25,4.33,15.5,29.73,67.56,43.69
	c52.07,13.96,86.91-16.79,95.17-23.67c-4.63,16.64-1.37,26.83-0.11,31.84c-19.56,2.61-63.18-0.28-95.45-6.41
	C139.94,178.01,99.25,162.18,94.88,160.15z"/>
<path class="ombre" d="M89.9,228.73c5.7,8.55,24.54,35.95,61.91,51c37.37,15.04,66.83,10.62,77.91,8.56
	c-8.87,7.76-12.65,16.02-14.39,19.98c-13.46,1.11-43.09-1.28-74.44-17.12S95.13,247.1,89.9,228.73z"/>
<path class="ombre" d="M127.28,160.65c1.01,1.45,10.6,20.88,48.44,34.67s75.36,9.31,93.74-0.97c-3.79-7.9-3.99-24.92-0.82-36.96
	c-12.24,10.29-37.27,29.09-71.72,27.79C159.01,181.85,135.47,167.25,127.28,160.65z"/>
<path class="ombre" d="M269.14,193.92c-0.48,13.78,8.72,26.59,13,29.44c1.9-7.6,3.8-11.72,4.91-14.58
	C279.28,205.14,272.94,199.15,269.14,193.92z"/>
</svg>
